<?xml version="1.0" encoding="utf-8"?>
<!-- Generator: Adobe Illustrator 16.0.0, SVG Export Plug-In . SVG Version: 6.00 Build 0)  -->
<!DOCTYPE svg PUBLIC "-//W3C//DTD SVG 1.1//EN" "http://www.w3.org/Graphics/SVG/1.1/DTD/svg11.dtd">
<svg version="1.1" id="Layer_1" xmlns="http://www.w3.org/2000/svg" xmlns:xlink="http://www.w3.org/1999/xlink" x="0px" y="0px"
	 width="513px" height="513px" viewBox="0 0 513 513" enable-background="new 0 0 513 513" xml:space="preserve">
<path fill-rule="evenodd" clip-rule="evenodd" fill="#273748" d="M310.159,287.502c0.253-3.814,1.78-7.119,4.582-9.917
	c3.3-3.308,7.368-4.958,12.204-4.958c4.835,0,8.903,1.65,12.204,4.958c3.309,3.305,4.962,7.376,4.962,12.208
	s-1.653,8.899-4.962,12.204l-5.722,3.815l-6.482,1.147c-4.836,0-8.904-1.654-12.204-4.963c-3.308-3.305-4.963-7.372-4.963-12.204
	L310.159,287.502z M279.641,255.84c-9.41,9.917-14.111,21.618-14.111,35.097c0,13.731,4.701,25.306,14.111,34.716
	c10.178,9.917,22.002,14.872,35.48,14.872s25.049-4.955,34.713-14.872c9.916-9.41,14.879-20.984,14.879-34.716
	c0-13.479-4.963-25.181-14.879-35.097c-9.664-9.664-21.234-14.496-34.713-14.496S289.818,246.177,279.641,255.84z M389.509,322.219
	h-1.907l1.907-0.768l-1.907,0.768l1.907,4.954l-5.342,29.759v7.629v44.25c0,40.695-20.349,61.036-61.036,61.036H222.039
	c-40.691,0-61.036-20.341-61.036-61.036v-54.546l-77.823,49.972V242.869l77.823,49.975v-12.971L57.625,99.815l77.439,47.305
	l0.38-80.11l60.272,49.591l16.786-82.017l40.815,166.321h69.813c40.688,0,61.036,20.348,61.036,61.037v18.694v8.009l2.287,6.87
	l3.055,25.936V322.219z"/>
<path fill-rule="evenodd" clip-rule="evenodd" fill="#F9F06C" d="M387.602,322.219l70.192,42.342h-73.627v-7.629l5.342-29.759
	L387.602,322.219z M384.167,280.637l75.147,7.249l-69.806,33.565l-3.055-25.936l-2.287-6.87V280.637z"/>
<path fill-rule="evenodd" clip-rule="evenodd" fill="#FFFFFF" d="M310.159,287.502l-0.381,2.291c0,4.832,1.655,8.899,4.963,12.204
	c3.3,3.309,7.368,4.963,12.204,4.963l6.482-1.147l5.722-3.815c3.309-3.305,4.962-7.372,4.962-12.204s-1.653-8.903-4.962-12.208
	c-3.301-3.308-7.369-4.958-12.204-4.958c-4.836,0-8.904,1.65-12.204,4.958C311.939,280.383,310.412,283.688,310.159,287.502z
	 M279.641,255.84c10.178-9.664,22.002-14.496,35.48-14.496s25.049,4.832,34.713,14.496c9.916,9.917,14.879,21.618,14.879,35.097
	c0,13.731-4.963,25.306-14.879,34.716c-9.664,9.917-21.234,14.872-34.713,14.872s-25.303-4.955-35.48-14.872
	c-9.41-9.41-14.111-20.984-14.111-34.716C265.529,277.458,270.23,265.757,279.641,255.84z"/>
<path fill-rule="evenodd" clip-rule="evenodd" fill="none" stroke="#273748" stroke-width="2" stroke-linecap="round" stroke-linejoin="round" stroke-miterlimit="3" d="
	M387.602,322.219l1.907-0.768 M384.167,280.637l75.147,7.249l-69.806,33.565 M389.509,322.219h-1.907l70.192,42.342h-73.627"/>
</svg>
